<?xml version="1.0" encoding="UTF-8" standalone="no"?><!DOCTYPE svg PUBLIC "-//W3C//DTD SVG 1.1//EN" "http://www.w3.org/Graphics/SVG/1.1/DTD/svg11.dtd"><svg width="100%" height="100%" viewBox="0 0 150 150" version="1.1" xmlns="http://www.w3.org/2000/svg" xmlns:xlink="http://www.w3.org/1999/xlink" xml:space="preserve" xmlns:serif="http://www.serif.com/" style="fill-rule:evenodd;clip-rule:evenodd;stroke-linejoin:round;stroke-miterlimit:2;"><path d="M95.006,130c-0.004,0 -0.006,-0 -0.006,-0c0,-0 0.002,0 0.006,-0Z" style="fill:#fff600;"/><path d="M101.033,100l-6.033,-0l-15.073,-18.841l2.573,-6.431l18.533,25.272Z" style="fill:#b3ff00;"/><path d="M78.956,80.111c0.027,-0.213 0.049,-0.262 0.142,-0.355l-0.142,0.355Z" style="fill:#fff600;"/><path d="M69.042,81.881l-14.042,18.119l-7.073,-0l18.482,-25.5c0.145,0.17 1.619,4.414 2.633,7.381Z" style="fill:#b3ff00;"/><path d="M40.545,116.22c-9.574,-9.111 -15.545,-21.973 -15.545,-36.22c-0,-22.735 15.207,-41.947 35.996,-48.009l14.004,28.009l14.004,-28.009c20.789,6.062 35.996,25.274 35.996,48.009c0,14.247 -5.971,27.109 -15.545,36.22c3.163,-7.395 5.578,-18.758 5.545,-36.22c-0.057,-29.958 -20,-40 -20,-40l-15.902,39.756c-0.093,0.093 -0.115,0.142 -0.142,0.355l-3.956,9.889l-4.5,-10l-15.5,-40c0,-0 -19.943,10.042 -20,40c-0.033,17.462 2.382,28.825 5.545,36.22Z" style="fill:#ca0024;"/><path d="M40.545,116.22c5.828,13.626 14.193,13.779 14.449,13.78c-0.559,-0.002 -39.953,-0.297 -39.994,-50c-0.042,-49.953 40,-60 40,-60l5.996,11.991c-20.789,6.062 -35.996,25.274 -35.996,48.009c-0,14.247 5.971,27.109 15.545,36.22Zm48.459,-84.229l5.996,-11.991c0,-0 40.042,10.047 40,60c-0.041,49.703 -39.435,49.998 -39.994,50c0.256,-0.001 8.621,-0.154 14.449,-13.78c9.574,-9.111 15.545,-21.973 15.545,-36.22c0,-22.735 -15.207,-41.947 -35.996,-48.009Z" style="fill:#ff000b;"/><path d="M54.994,130c0.004,0 0.006,-0 0.006,-0c0,-0 -0.002,0 -0.006,-0Z" style="fill:#fff600;"/></svg>