<?xml version="1.0" encoding="UTF-8" standalone="no"?><!DOCTYPE svg PUBLIC "-//W3C//DTD SVG 1.1//EN" "http://www.w3.org/Graphics/SVG/1.1/DTD/svg11.dtd"><svg width="100%" height="100%" viewBox="0 0 150 150" version="1.1" xmlns="http://www.w3.org/2000/svg" xmlns:xlink="http://www.w3.org/1999/xlink" xml:space="preserve" xmlns:serif="http://www.serif.com/" style="fill-rule:evenodd;clip-rule:evenodd;stroke-linejoin:round;stroke-miterlimit:2;"><path d="M58.272,30.648c-12.693,9.612 -20.9,24.845 -20.9,41.98c0,47.057 35.498,50.223 35.259,50.365c-31.059,-0.465 -56.131,-25.824 -56.131,-56.993c0,-10.818 3.02,-20.936 8.263,-29.557c1.439,-2.367 3.046,-4.621 4.804,-6.745c4.161,-5.029 26.805,-11.542 32.312,-9.665c2.97,1.012 11.646,18.987 13.121,19.967c1.475,-0.98 10.151,-18.955 13.121,-19.967c5.507,-1.877 28.151,4.636 32.312,9.665c1.758,2.124 3.365,4.378 4.804,6.745c5.243,8.621 8.263,18.739 8.263,29.557c-0,31.169 -25.072,56.528 -56.131,56.993c-0.239,-0.142 35.259,-3.178 35.259,-50.365c-0,-17.135 -8.207,-32.368 -20.9,-41.98c-5.968,0.943 -16.728,71.352 -16.728,71.352c-0,0 -10.76,-70.409 -16.728,-71.352Z" style="fill:#ff9f00;"/></svg>